<svg width="590" height="110" viewBox="0 0 590 110" fill="none" xmlns="http://www.w3.org/2000/svg">
<mask id="path-1-outside-1_503_6" maskUnits="userSpaceOnUse" x="0" y="0" width="590" height="110" fill="black">
<rect fill="white" width="590" height="110"/>
<path d="M100.312 30H98.75V20.625C98.75 11.875 79.375 5 55 5C30.625 5 11.25 11.875 11.25 20.625V30H9.6875C7.09961 30 5 32.0977 5 34.6875V50.3125C5 52.9004 7.09961 55 9.6875 55H11.25V86.25C11.25 89.7012 14.0488 92.5 17.5 92.5V98.75C17.5 102.201 20.2988 105 23.75 105H30C33.4512 105 36.25 102.201 36.25 98.75V92.5H73.75V98.75C73.75 102.201 76.5488 105 80 105H86.25C89.7012 105 92.5 102.201 92.5 98.75V92.5H93.75C96.875 92.5 98.75 90 98.75 87.5V55H100.312C102.9 55 105 52.9004 105 50.3125V34.6875C105 32.0977 102.9 30 100.312 30ZM26.875 83.125C23.4238 83.125 20.625 80.3262 20.625 76.875C20.625 73.4238 23.4238 70.625 26.875 70.625C30.3262 70.625 33.125 73.4238 33.125 76.875C33.125 80.3262 30.3262 83.125 26.875 83.125ZM30 61.25C26.5488 61.25 23.75 58.4512 23.75 55V30C23.75 26.5488 26.5488 23.75 30 23.75H80C83.4512 23.75 86.25 26.5488 86.25 30V55C86.25 58.4512 83.4512 61.25 80 61.25H30ZM83.125 83.125C79.6738 83.125 76.875 80.3262 76.875 76.875C76.875 73.4238 79.6738 70.625 83.125 70.625C86.5762 70.625 89.375 73.4238 89.375 76.875C89.375 80.3262 86.5762 83.125 83.125 83.125Z"/>
<path d="M164.2 103.4C157.4 103.4 151.333 101.917 146 98.95C140.7 95.95 136.517 91.7333 133.45 86.3C130.417 80.8333 128.9 74.4 128.9 67C128.9 59.6 130.433 53.1833 133.5 47.75C136.6 42.2833 140.833 38.0667 146.2 35.1C151.6 32.1 157.733 30.6 164.6 30.6C168.167 30.6 171.567 30.9833 174.8 31.75C178.033 32.5167 180.867 33.5 183.3 34.7L182.3 43.5C179.8 42.3 177.05 41.2833 174.05 40.45C171.05 39.6167 167.867 39.2 164.5 39.2C159 39.2 154.383 40.45 150.65 42.95C146.917 45.4167 144.083 48.75 142.15 52.95C140.25 57.15 139.3 61.8333 139.3 67C139.3 72.1667 140.233 76.85 142.1 81.05C144 85.25 146.8 88.6 150.5 91.1C154.233 93.5667 158.833 94.8 164.3 94.8C167.767 94.8 170.967 94.4333 173.9 93.7C176.867 92.9333 179.667 91.9 182.3 90.6L183.3 99.4C180.8 100.533 177.983 101.483 174.85 102.25C171.717 103.017 168.167 103.4 164.2 103.4Z"/>
<path d="M212.754 103C207.621 103 203.237 101.867 199.604 99.6C196.004 97.3 193.237 94.2333 191.304 90.4C189.404 86.5333 188.454 82.2333 188.454 77.5C188.454 72.7667 189.404 68.4833 191.304 64.65C193.237 60.7833 196.004 57.7167 199.604 55.45C203.237 53.15 207.621 52 212.754 52C217.854 52 222.221 53.15 225.854 55.45C229.487 57.7167 232.254 60.7833 234.154 64.65C236.087 68.4833 237.054 72.7667 237.054 77.5C237.054 82.2333 236.087 86.5333 234.154 90.4C232.254 94.2333 229.487 97.3 225.854 99.6C222.221 101.867 217.854 103 212.754 103ZM212.754 95C217.621 95 221.354 93.4667 223.954 90.4C226.554 87.3 227.854 83 227.854 77.5C227.854 72 226.554 67.7167 223.954 64.65C221.354 61.55 217.621 60 212.754 60C207.921 60 204.187 61.55 201.554 64.65C198.954 67.7167 197.654 72 197.654 77.5C197.654 83 198.954 87.3 201.554 90.4C204.187 93.4667 207.921 95 212.754 95Z"/>
<path d="M258.934 103C255.768 103 253.251 102.433 251.384 101.3C249.551 100.133 248.234 98.65 247.434 96.85C246.634 95.05 246.234 93.1667 246.234 91.2V27H255.234V86C255.234 88.8 255.418 90.9 255.784 92.3C256.151 93.7 256.884 94.6333 257.984 95.1C259.118 95.5667 260.834 95.8 263.134 95.8L261.834 103H258.934Z"/>
<path d="M292.979 103C287.212 103 282.362 101.817 278.429 99.45C274.496 97.0833 271.512 93.95 269.479 90.05C267.479 86.1167 266.479 81.8 266.479 77.1C266.479 72.5333 267.412 68.35 269.279 64.55C271.179 60.75 273.912 57.7167 277.479 55.45C281.079 53.15 285.412 52 290.479 52C294.546 52 298.162 52.8167 301.329 54.45C304.529 56.05 307.029 58.4 308.829 61.5C310.662 64.5667 311.579 68.3 311.579 72.7C311.579 73.4 311.546 74.1667 311.479 75C311.446 75.8 311.346 76.6333 311.179 77.5H275.679C276.112 82.0333 277.196 85.5667 278.929 88.1C280.662 90.6333 282.846 92.4167 285.479 93.45C288.112 94.4833 290.979 95 294.079 95C296.346 95 298.712 94.7667 301.179 94.3C303.646 93.8333 305.979 93.1 308.179 92.1L309.379 99.2C307.479 100.033 305.162 100.883 302.429 101.75C299.696 102.583 296.546 103 292.979 103ZM276.479 71.3H302.279C302.279 69 301.846 67 300.979 65.3C300.112 63.6 298.796 62.3 297.029 61.4C295.262 60.4667 293.012 60 290.279 60C286.279 60 283.196 61 281.029 63C278.896 64.9667 277.379 67.7333 276.479 71.3Z"/>
<path d="M343.151 103C337.617 103 332.967 101.883 329.201 99.65C325.467 97.3833 322.634 94.35 320.701 90.55C318.801 86.7167 317.851 82.4667 317.851 77.8C317.851 72.9333 318.767 68.55 320.601 64.65C322.467 60.75 325.317 57.6667 329.151 55.4C332.984 53.1333 337.884 52 343.851 52C346.417 52 348.834 52.2667 351.101 52.8C353.401 53.3 355.451 54 357.251 54.9L355.851 62.8C354.017 61.9333 352.067 61.25 350.001 60.75C347.967 60.25 345.851 60 343.651 60C338.251 60 334.134 61.5333 331.301 64.6C328.467 67.6667 327.051 71.9333 327.051 77.4C327.051 82.7333 328.401 87.0167 331.101 90.25C333.801 93.4833 337.917 95.1 343.451 95.1C345.717 95.1 347.884 94.8333 349.951 94.3C352.051 93.7667 354.051 93.0333 355.951 92.1L357.151 99.3C355.817 100.233 353.867 101.083 351.301 101.85C348.734 102.617 346.017 103 343.151 103Z"/>
<path d="M382.961 103C379.861 103 377.378 102.433 375.511 101.3C373.644 100.167 372.278 98.7167 371.411 96.95C370.578 95.15 370.161 93.2667 370.161 91.3V60H361.761L362.561 53H370.161V40.9L379.161 40V53H392.061V60H379.161V85.8C379.161 88.9333 379.344 91.2 379.711 92.6C380.078 94 380.978 94.8833 382.411 95.25C383.878 95.6167 386.228 95.8 389.461 95.8H391.761L391.061 103H382.961Z"/>
<path d="M417.352 103C413.519 103 410.252 102.233 407.552 100.7C404.852 99.1333 402.786 96.7667 401.352 93.6C399.952 90.4333 399.252 86.4 399.252 81.5V53H408.252V79C408.252 84.2 409.136 88.1667 410.902 90.9C412.702 93.6333 415.619 95 419.652 95C422.419 95 424.986 94.3333 427.352 93C429.719 91.6667 431.352 89.5333 432.252 86.6L430.952 91.5V53H439.952V102H431.952L430.152 92.4L432.552 94C430.919 97.0333 428.919 99.3 426.552 100.8C424.219 102.267 421.152 103 417.352 103Z"/>
<path d="M476.294 103C472.86 103 469.527 102.183 466.294 100.55C463.094 98.8833 460.86 96.4333 459.594 93.2L461.794 91.6L460.094 102H452.094V27H461.094V62.6L459.194 61.2C460.86 58.5 463.244 56.3 466.344 54.6C469.444 52.8667 472.76 52 476.294 52C480.86 52 484.794 53.2 488.094 55.6C491.394 57.9667 493.927 61.1 495.694 65C497.494 68.8667 498.394 73.0333 498.394 77.5C498.394 82.2667 497.41 86.5833 495.444 90.45C493.477 94.2833 490.827 97.3333 487.494 99.6C484.16 101.867 480.427 103 476.294 103ZM475.194 95C478.06 95 480.544 94.2167 482.644 92.65C484.744 91.05 486.36 88.9333 487.494 86.3C488.627 83.6333 489.194 80.7 489.194 77.5C489.194 74.1667 488.627 71.1833 487.494 68.55C486.36 65.9167 484.744 63.8333 482.644 62.3C480.544 60.7667 478.06 60 475.194 60C472.627 60 470.227 60.65 467.994 61.95C465.794 63.2167 464.01 65.15 462.644 67.75C461.277 70.3167 460.594 73.5667 460.594 77.5C460.594 81.6 461.277 84.9333 462.644 87.5C464.01 90.0667 465.794 91.9667 467.994 93.2C470.227 94.4 472.627 95 475.194 95Z"/>
<path d="M531.162 103C525.396 103 520.546 101.817 516.612 99.45C512.679 97.0833 509.696 93.95 507.663 90.05C505.663 86.1167 504.663 81.8 504.663 77.1C504.663 72.5333 505.596 68.35 507.462 64.55C509.362 60.75 512.096 57.7167 515.663 55.45C519.263 53.15 523.596 52 528.662 52C532.729 52 536.346 52.8167 539.513 54.45C542.713 56.05 545.213 58.4 547.013 61.5C548.846 64.5667 549.763 68.3 549.763 72.7C549.763 73.4 549.729 74.1667 549.662 75C549.629 75.8 549.529 76.6333 549.362 77.5H513.862C514.296 82.0333 515.379 85.5667 517.112 88.1C518.846 90.6333 521.029 92.4167 523.662 93.45C526.296 94.4833 529.163 95 532.263 95C534.529 95 536.896 94.7667 539.362 94.3C541.829 93.8333 544.162 93.1 546.362 92.1L547.562 99.2C545.663 100.033 543.346 100.883 540.612 101.75C537.879 102.583 534.729 103 531.162 103ZM514.663 71.3H540.463C540.463 69 540.029 67 539.162 65.3C538.296 63.6 536.979 62.3 535.213 61.4C533.446 60.4667 531.196 60 528.463 60C524.463 60 521.379 61 519.213 63C517.079 64.9667 515.563 67.7333 514.663 71.3Z"/>
<path d="M558.834 102V53H566.234L567.334 61.1C569.834 58 572.218 55.7167 574.484 54.25C576.784 52.75 579.234 52 581.834 52C582.668 52 583.434 52.1 584.134 52.3L583.234 62.2C582.801 62.1 582.334 62.0333 581.834 62C581.368 61.9333 580.834 61.9 580.234 61.9C577.634 61.9 575.234 62.4833 573.034 63.65C570.868 64.7833 569.334 66.0333 568.434 67.4V102H558.834Z"/>
</mask>
<path d="M100.312 30H98.75V20.625C98.75 11.875 79.375 5 55 5C30.625 5 11.25 11.875 11.25 20.625V30H9.6875C7.09961 30 5 32.0977 5 34.6875V50.3125C5 52.9004 7.09961 55 9.6875 55H11.25V86.25C11.25 89.7012 14.0488 92.5 17.5 92.5V98.75C17.5 102.201 20.2988 105 23.75 105H30C33.4512 105 36.25 102.201 36.25 98.75V92.5H73.75V98.75C73.75 102.201 76.5488 105 80 105H86.25C89.7012 105 92.5 102.201 92.5 98.75V92.5H93.75C96.875 92.5 98.75 90 98.75 87.5V55H100.312C102.9 55 105 52.9004 105 50.3125V34.6875C105 32.0977 102.9 30 100.312 30ZM26.875 83.125C23.4238 83.125 20.625 80.3262 20.625 76.875C20.625 73.4238 23.4238 70.625 26.875 70.625C30.3262 70.625 33.125 73.4238 33.125 76.875C33.125 80.3262 30.3262 83.125 26.875 83.125ZM30 61.25C26.5488 61.25 23.75 58.4512 23.75 55V30C23.75 26.5488 26.5488 23.75 30 23.75H80C83.4512 23.75 86.25 26.5488 86.25 30V55C86.25 58.4512 83.4512 61.25 80 61.25H30ZM83.125 83.125C79.6738 83.125 76.875 80.3262 76.875 76.875C76.875 73.4238 79.6738 70.625 83.125 70.625C86.5762 70.625 89.375 73.4238 89.375 76.875C89.375 80.3262 86.5762 83.125 83.125 83.125Z" fill="white"/>
<path d="M164.2 103.4C157.4 103.4 151.333 101.917 146 98.95C140.7 95.95 136.517 91.7333 133.45 86.3C130.417 80.8333 128.9 74.4 128.9 67C128.9 59.6 130.433 53.1833 133.5 47.75C136.6 42.2833 140.833 38.0667 146.2 35.1C151.6 32.1 157.733 30.6 164.6 30.6C168.167 30.6 171.567 30.9833 174.8 31.75C178.033 32.5167 180.867 33.5 183.3 34.7L182.3 43.5C179.8 42.3 177.05 41.2833 174.05 40.45C171.05 39.6167 167.867 39.2 164.5 39.2C159 39.2 154.383 40.45 150.65 42.95C146.917 45.4167 144.083 48.75 142.15 52.95C140.25 57.15 139.3 61.8333 139.3 67C139.3 72.1667 140.233 76.85 142.1 81.05C144 85.25 146.8 88.6 150.5 91.1C154.233 93.5667 158.833 94.8 164.3 94.8C167.767 94.8 170.967 94.4333 173.9 93.7C176.867 92.9333 179.667 91.9 182.3 90.6L183.3 99.4C180.8 100.533 177.983 101.483 174.85 102.25C171.717 103.017 168.167 103.4 164.2 103.4Z" fill="white"/>
<path d="M212.754 103C207.621 103 203.237 101.867 199.604 99.6C196.004 97.3 193.237 94.2333 191.304 90.4C189.404 86.5333 188.454 82.2333 188.454 77.5C188.454 72.7667 189.404 68.4833 191.304 64.65C193.237 60.7833 196.004 57.7167 199.604 55.45C203.237 53.15 207.621 52 212.754 52C217.854 52 222.221 53.15 225.854 55.45C229.487 57.7167 232.254 60.7833 234.154 64.65C236.087 68.4833 237.054 72.7667 237.054 77.5C237.054 82.2333 236.087 86.5333 234.154 90.4C232.254 94.2333 229.487 97.3 225.854 99.6C222.221 101.867 217.854 103 212.754 103ZM212.754 95C217.621 95 221.354 93.4667 223.954 90.4C226.554 87.3 227.854 83 227.854 77.5C227.854 72 226.554 67.7167 223.954 64.65C221.354 61.55 217.621 60 212.754 60C207.921 60 204.187 61.55 201.554 64.65C198.954 67.7167 197.654 72 197.654 77.5C197.654 83 198.954 87.3 201.554 90.4C204.187 93.4667 207.921 95 212.754 95Z" fill="white"/>
<path d="M258.934 103C255.768 103 253.251 102.433 251.384 101.3C249.551 100.133 248.234 98.65 247.434 96.85C246.634 95.05 246.234 93.1667 246.234 91.2V27H255.234V86C255.234 88.8 255.418 90.9 255.784 92.3C256.151 93.7 256.884 94.6333 257.984 95.1C259.118 95.5667 260.834 95.8 263.134 95.8L261.834 103H258.934Z" fill="white"/>
<path d="M292.979 103C287.212 103 282.362 101.817 278.429 99.45C274.496 97.0833 271.512 93.95 269.479 90.05C267.479 86.1167 266.479 81.8 266.479 77.1C266.479 72.5333 267.412 68.35 269.279 64.55C271.179 60.75 273.912 57.7167 277.479 55.45C281.079 53.15 285.412 52 290.479 52C294.546 52 298.162 52.8167 301.329 54.45C304.529 56.05 307.029 58.4 308.829 61.5C310.662 64.5667 311.579 68.3 311.579 72.7C311.579 73.4 311.546 74.1667 311.479 75C311.446 75.8 311.346 76.6333 311.179 77.5H275.679C276.112 82.0333 277.196 85.5667 278.929 88.1C280.662 90.6333 282.846 92.4167 285.479 93.45C288.112 94.4833 290.979 95 294.079 95C296.346 95 298.712 94.7667 301.179 94.3C303.646 93.8333 305.979 93.1 308.179 92.1L309.379 99.2C307.479 100.033 305.162 100.883 302.429 101.75C299.696 102.583 296.546 103 292.979 103ZM276.479 71.3H302.279C302.279 69 301.846 67 300.979 65.3C300.112 63.6 298.796 62.3 297.029 61.4C295.262 60.4667 293.012 60 290.279 60C286.279 60 283.196 61 281.029 63C278.896 64.9667 277.379 67.7333 276.479 71.3Z" fill="white"/>
<path d="M343.151 103C337.617 103 332.967 101.883 329.201 99.65C325.467 97.3833 322.634 94.35 320.701 90.55C318.801 86.7167 317.851 82.4667 317.851 77.8C317.851 72.9333 318.767 68.55 320.601 64.65C322.467 60.75 325.317 57.6667 329.151 55.4C332.984 53.1333 337.884 52 343.851 52C346.417 52 348.834 52.2667 351.101 52.8C353.401 53.3 355.451 54 357.251 54.9L355.851 62.8C354.017 61.9333 352.067 61.25 350.001 60.75C347.967 60.25 345.851 60 343.651 60C338.251 60 334.134 61.5333 331.301 64.6C328.467 67.6667 327.051 71.9333 327.051 77.4C327.051 82.7333 328.401 87.0167 331.101 90.25C333.801 93.4833 337.917 95.1 343.451 95.1C345.717 95.1 347.884 94.8333 349.951 94.3C352.051 93.7667 354.051 93.0333 355.951 92.1L357.151 99.3C355.817 100.233 353.867 101.083 351.301 101.85C348.734 102.617 346.017 103 343.151 103Z" fill="white"/>
<path d="M382.961 103C379.861 103 377.378 102.433 375.511 101.3C373.644 100.167 372.278 98.7167 371.411 96.95C370.578 95.15 370.161 93.2667 370.161 91.3V60H361.761L362.561 53H370.161V40.9L379.161 40V53H392.061V60H379.161V85.8C379.161 88.9333 379.344 91.2 379.711 92.6C380.078 94 380.978 94.8833 382.411 95.25C383.878 95.6167 386.228 95.8 389.461 95.8H391.761L391.061 103H382.961Z" fill="white"/>
<path d="M417.352 103C413.519 103 410.252 102.233 407.552 100.7C404.852 99.1333 402.786 96.7667 401.352 93.6C399.952 90.4333 399.252 86.4 399.252 81.5V53H408.252V79C408.252 84.2 409.136 88.1667 410.902 90.9C412.702 93.6333 415.619 95 419.652 95C422.419 95 424.986 94.3333 427.352 93C429.719 91.6667 431.352 89.5333 432.252 86.6L430.952 91.5V53H439.952V102H431.952L430.152 92.4L432.552 94C430.919 97.0333 428.919 99.3 426.552 100.8C424.219 102.267 421.152 103 417.352 103Z" fill="white"/>
<path d="M476.294 103C472.86 103 469.527 102.183 466.294 100.55C463.094 98.8833 460.86 96.4333 459.594 93.2L461.794 91.6L460.094 102H452.094V27H461.094V62.6L459.194 61.2C460.86 58.5 463.244 56.3 466.344 54.6C469.444 52.8667 472.76 52 476.294 52C480.86 52 484.794 53.2 488.094 55.6C491.394 57.9667 493.927 61.1 495.694 65C497.494 68.8667 498.394 73.0333 498.394 77.5C498.394 82.2667 497.41 86.5833 495.444 90.45C493.477 94.2833 490.827 97.3333 487.494 99.6C484.16 101.867 480.427 103 476.294 103ZM475.194 95C478.06 95 480.544 94.2167 482.644 92.65C484.744 91.05 486.36 88.9333 487.494 86.3C488.627 83.6333 489.194 80.7 489.194 77.5C489.194 74.1667 488.627 71.1833 487.494 68.55C486.36 65.9167 484.744 63.8333 482.644 62.3C480.544 60.7667 478.06 60 475.194 60C472.627 60 470.227 60.65 467.994 61.95C465.794 63.2167 464.01 65.15 462.644 67.75C461.277 70.3167 460.594 73.5667 460.594 77.5C460.594 81.6 461.277 84.9333 462.644 87.5C464.01 90.0667 465.794 91.9667 467.994 93.2C470.227 94.4 472.627 95 475.194 95Z" fill="white"/>
<path d="M531.162 103C525.396 103 520.546 101.817 516.612 99.45C512.679 97.0833 509.696 93.95 507.663 90.05C505.663 86.1167 504.663 81.8 504.663 77.1C504.663 72.5333 505.596 68.35 507.462 64.55C509.362 60.75 512.096 57.7167 515.663 55.45C519.263 53.15 523.596 52 528.662 52C532.729 52 536.346 52.8167 539.513 54.45C542.713 56.05 545.213 58.4 547.013 61.5C548.846 64.5667 549.763 68.3 549.763 72.7C549.763 73.4 549.729 74.1667 549.662 75C549.629 75.8 549.529 76.6333 549.362 77.5H513.862C514.296 82.0333 515.379 85.5667 517.112 88.1C518.846 90.6333 521.029 92.4167 523.662 93.45C526.296 94.4833 529.163 95 532.263 95C534.529 95 536.896 94.7667 539.362 94.3C541.829 93.8333 544.162 93.1 546.362 92.1L547.562 99.2C545.663 100.033 543.346 100.883 540.612 101.75C537.879 102.583 534.729 103 531.162 103ZM514.663 71.3H540.463C540.463 69 540.029 67 539.162 65.3C538.296 63.6 536.979 62.3 535.213 61.4C533.446 60.4667 531.196 60 528.463 60C524.463 60 521.379 61 519.213 63C517.079 64.9667 515.563 67.7333 514.663 71.3Z" fill="white"/>
<path d="M558.834 102V53H566.234L567.334 61.1C569.834 58 572.218 55.7167 574.484 54.25C576.784 52.75 579.234 52 581.834 52C582.668 52 583.434 52.1 584.134 52.3L583.234 62.2C582.801 62.1 582.334 62.0333 581.834 62C581.368 61.9333 580.834 61.9 580.234 61.9C577.634 61.9 575.234 62.4833 573.034 63.65C570.868 64.7833 569.334 66.0333 568.434 67.4V102H558.834Z" fill="white"/>
<path d="M100.312 30H98.75V20.625C98.75 11.875 79.375 5 55 5C30.625 5 11.25 11.875 11.25 20.625V30H9.6875C7.09961 30 5 32.0977 5 34.6875V50.3125C5 52.9004 7.09961 55 9.6875 55H11.25V86.25C11.25 89.7012 14.0488 92.5 17.5 92.5V98.75C17.5 102.201 20.2988 105 23.75 105H30C33.4512 105 36.25 102.201 36.25 98.75V92.5H73.75V98.75C73.75 102.201 76.5488 105 80 105H86.25C89.7012 105 92.5 102.201 92.5 98.75V92.5H93.75C96.875 92.5 98.75 90 98.75 87.5V55H100.312C102.9 55 105 52.9004 105 50.3125V34.6875C105 32.0977 102.9 30 100.312 30ZM26.875 83.125C23.4238 83.125 20.625 80.3262 20.625 76.875C20.625 73.4238 23.4238 70.625 26.875 70.625C30.3262 70.625 33.125 73.4238 33.125 76.875C33.125 80.3262 30.3262 83.125 26.875 83.125ZM30 61.25C26.5488 61.25 23.75 58.4512 23.75 55V30C23.75 26.5488 26.5488 23.75 30 23.75H80C83.4512 23.75 86.25 26.5488 86.25 30V55C86.25 58.4512 83.4512 61.25 80 61.25H30ZM83.125 83.125C79.6738 83.125 76.875 80.3262 76.875 76.875C76.875 73.4238 79.6738 70.625 83.125 70.625C86.5762 70.625 89.375 73.4238 89.375 76.875C89.375 80.3262 86.5762 83.125 83.125 83.125Z" stroke="black" stroke-width="10" mask="url(#path-1-outside-1_503_6)"/>
<path d="M164.2 103.4C157.4 103.4 151.333 101.917 146 98.95C140.7 95.95 136.517 91.7333 133.45 86.3C130.417 80.8333 128.9 74.4 128.9 67C128.9 59.6 130.433 53.1833 133.5 47.75C136.6 42.2833 140.833 38.0667 146.2 35.1C151.6 32.1 157.733 30.6 164.6 30.6C168.167 30.6 171.567 30.9833 174.8 31.75C178.033 32.5167 180.867 33.5 183.3 34.7L182.3 43.5C179.8 42.3 177.05 41.2833 174.05 40.45C171.05 39.6167 167.867 39.2 164.5 39.2C159 39.2 154.383 40.45 150.65 42.95C146.917 45.4167 144.083 48.75 142.15 52.95C140.25 57.15 139.3 61.8333 139.3 67C139.3 72.1667 140.233 76.85 142.1 81.05C144 85.25 146.8 88.6 150.5 91.1C154.233 93.5667 158.833 94.8 164.3 94.8C167.767 94.8 170.967 94.4333 173.9 93.7C176.867 92.9333 179.667 91.9 182.3 90.6L183.3 99.4C180.8 100.533 177.983 101.483 174.85 102.25C171.717 103.017 168.167 103.4 164.2 103.4Z" stroke="black" stroke-width="10" mask="url(#path-1-outside-1_503_6)"/>
<path d="M212.754 103C207.621 103 203.237 101.867 199.604 99.6C196.004 97.3 193.237 94.2333 191.304 90.4C189.404 86.5333 188.454 82.2333 188.454 77.5C188.454 72.7667 189.404 68.4833 191.304 64.65C193.237 60.7833 196.004 57.7167 199.604 55.45C203.237 53.15 207.621 52 212.754 52C217.854 52 222.221 53.15 225.854 55.45C229.487 57.7167 232.254 60.7833 234.154 64.65C236.087 68.4833 237.054 72.7667 237.054 77.5C237.054 82.2333 236.087 86.5333 234.154 90.4C232.254 94.2333 229.487 97.3 225.854 99.6C222.221 101.867 217.854 103 212.754 103ZM212.754 95C217.621 95 221.354 93.4667 223.954 90.4C226.554 87.3 227.854 83 227.854 77.5C227.854 72 226.554 67.7167 223.954 64.65C221.354 61.55 217.621 60 212.754 60C207.921 60 204.187 61.55 201.554 64.65C198.954 67.7167 197.654 72 197.654 77.5C197.654 83 198.954 87.3 201.554 90.4C204.187 93.4667 207.921 95 212.754 95Z" stroke="black" stroke-width="10" mask="url(#path-1-outside-1_503_6)"/>
<path d="M258.934 103C255.768 103 253.251 102.433 251.384 101.3C249.551 100.133 248.234 98.65 247.434 96.85C246.634 95.05 246.234 93.1667 246.234 91.2V27H255.234V86C255.234 88.8 255.418 90.9 255.784 92.3C256.151 93.7 256.884 94.6333 257.984 95.1C259.118 95.5667 260.834 95.8 263.134 95.8L261.834 103H258.934Z" stroke="black" stroke-width="10" mask="url(#path-1-outside-1_503_6)"/>
<path d="M292.979 103C287.212 103 282.362 101.817 278.429 99.45C274.496 97.0833 271.512 93.95 269.479 90.05C267.479 86.1167 266.479 81.8 266.479 77.1C266.479 72.5333 267.412 68.35 269.279 64.55C271.179 60.75 273.912 57.7167 277.479 55.45C281.079 53.15 285.412 52 290.479 52C294.546 52 298.162 52.8167 301.329 54.45C304.529 56.05 307.029 58.4 308.829 61.5C310.662 64.5667 311.579 68.3 311.579 72.7C311.579 73.4 311.546 74.1667 311.479 75C311.446 75.8 311.346 76.6333 311.179 77.5H275.679C276.112 82.0333 277.196 85.5667 278.929 88.1C280.662 90.6333 282.846 92.4167 285.479 93.45C288.112 94.4833 290.979 95 294.079 95C296.346 95 298.712 94.7667 301.179 94.3C303.646 93.8333 305.979 93.1 308.179 92.1L309.379 99.2C307.479 100.033 305.162 100.883 302.429 101.75C299.696 102.583 296.546 103 292.979 103ZM276.479 71.3H302.279C302.279 69 301.846 67 300.979 65.3C300.112 63.6 298.796 62.3 297.029 61.4C295.262 60.4667 293.012 60 290.279 60C286.279 60 283.196 61 281.029 63C278.896 64.9667 277.379 67.7333 276.479 71.3Z" stroke="black" stroke-width="10" mask="url(#path-1-outside-1_503_6)"/>
<path d="M343.151 103C337.617 103 332.967 101.883 329.201 99.65C325.467 97.3833 322.634 94.35 320.701 90.55C318.801 86.7167 317.851 82.4667 317.851 77.8C317.851 72.9333 318.767 68.55 320.601 64.65C322.467 60.75 325.317 57.6667 329.151 55.4C332.984 53.1333 337.884 52 343.851 52C346.417 52 348.834 52.2667 351.101 52.8C353.401 53.3 355.451 54 357.251 54.9L355.851 62.8C354.017 61.9333 352.067 61.25 350.001 60.75C347.967 60.25 345.851 60 343.651 60C338.251 60 334.134 61.5333 331.301 64.6C328.467 67.6667 327.051 71.9333 327.051 77.4C327.051 82.7333 328.401 87.0167 331.101 90.25C333.801 93.4833 337.917 95.1 343.451 95.1C345.717 95.1 347.884 94.8333 349.951 94.3C352.051 93.7667 354.051 93.0333 355.951 92.1L357.151 99.3C355.817 100.233 353.867 101.083 351.301 101.85C348.734 102.617 346.017 103 343.151 103Z" stroke="black" stroke-width="10" mask="url(#path-1-outside-1_503_6)"/>
<path d="M382.961 103C379.861 103 377.378 102.433 375.511 101.3C373.644 100.167 372.278 98.7167 371.411 96.95C370.578 95.15 370.161 93.2667 370.161 91.3V60H361.761L362.561 53H370.161V40.9L379.161 40V53H392.061V60H379.161V85.8C379.161 88.9333 379.344 91.2 379.711 92.6C380.078 94 380.978 94.8833 382.411 95.25C383.878 95.6167 386.228 95.8 389.461 95.8H391.761L391.061 103H382.961Z" stroke="black" stroke-width="10" mask="url(#path-1-outside-1_503_6)"/>
<path d="M417.352 103C413.519 103 410.252 102.233 407.552 100.7C404.852 99.1333 402.786 96.7667 401.352 93.6C399.952 90.4333 399.252 86.4 399.252 81.5V53H408.252V79C408.252 84.2 409.136 88.1667 410.902 90.9C412.702 93.6333 415.619 95 419.652 95C422.419 95 424.986 94.3333 427.352 93C429.719 91.6667 431.352 89.5333 432.252 86.6L430.952 91.5V53H439.952V102H431.952L430.152 92.4L432.552 94C430.919 97.0333 428.919 99.3 426.552 100.8C424.219 102.267 421.152 103 417.352 103Z" stroke="black" stroke-width="10" mask="url(#path-1-outside-1_503_6)"/>
<path d="M476.294 103C472.86 103 469.527 102.183 466.294 100.55C463.094 98.8833 460.86 96.4333 459.594 93.2L461.794 91.6L460.094 102H452.094V27H461.094V62.6L459.194 61.2C460.86 58.5 463.244 56.3 466.344 54.6C469.444 52.8667 472.76 52 476.294 52C480.86 52 484.794 53.2 488.094 55.6C491.394 57.9667 493.927 61.1 495.694 65C497.494 68.8667 498.394 73.0333 498.394 77.5C498.394 82.2667 497.41 86.5833 495.444 90.45C493.477 94.2833 490.827 97.3333 487.494 99.6C484.16 101.867 480.427 103 476.294 103ZM475.194 95C478.06 95 480.544 94.2167 482.644 92.65C484.744 91.05 486.36 88.9333 487.494 86.3C488.627 83.6333 489.194 80.7 489.194 77.5C489.194 74.1667 488.627 71.1833 487.494 68.55C486.36 65.9167 484.744 63.8333 482.644 62.3C480.544 60.7667 478.06 60 475.194 60C472.627 60 470.227 60.65 467.994 61.95C465.794 63.2167 464.01 65.15 462.644 67.75C461.277 70.3167 460.594 73.5667 460.594 77.5C460.594 81.6 461.277 84.9333 462.644 87.5C464.01 90.0667 465.794 91.9667 467.994 93.2C470.227 94.4 472.627 95 475.194 95Z" stroke="black" stroke-width="10" mask="url(#path-1-outside-1_503_6)"/>
<path d="M531.162 103C525.396 103 520.546 101.817 516.612 99.45C512.679 97.0833 509.696 93.95 507.663 90.05C505.663 86.1167 504.663 81.8 504.663 77.1C504.663 72.5333 505.596 68.35 507.462 64.55C509.362 60.75 512.096 57.7167 515.663 55.45C519.263 53.15 523.596 52 528.662 52C532.729 52 536.346 52.8167 539.513 54.45C542.713 56.05 545.213 58.4 547.013 61.5C548.846 64.5667 549.763 68.3 549.763 72.7C549.763 73.4 549.729 74.1667 549.662 75C549.629 75.8 549.529 76.6333 549.362 77.5H513.862C514.296 82.0333 515.379 85.5667 517.112 88.1C518.846 90.6333 521.029 92.4167 523.662 93.45C526.296 94.4833 529.163 95 532.263 95C534.529 95 536.896 94.7667 539.362 94.3C541.829 93.8333 544.162 93.1 546.362 92.1L547.562 99.2C545.663 100.033 543.346 100.883 540.612 101.75C537.879 102.583 534.729 103 531.162 103ZM514.663 71.3H540.463C540.463 69 540.029 67 539.162 65.3C538.296 63.6 536.979 62.3 535.213 61.4C533.446 60.4667 531.196 60 528.463 60C524.463 60 521.379 61 519.213 63C517.079 64.9667 515.563 67.7333 514.663 71.3Z" stroke="black" stroke-width="10" mask="url(#path-1-outside-1_503_6)"/>
<path d="M558.834 102V53H566.234L567.334 61.1C569.834 58 572.218 55.7167 574.484 54.25C576.784 52.75 579.234 52 581.834 52C582.668 52 583.434 52.1 584.134 52.3L583.234 62.2C582.801 62.1 582.334 62.0333 581.834 62C581.368 61.9333 580.834 61.9 580.234 61.9C577.634 61.9 575.234 62.4833 573.034 63.65C570.868 64.7833 569.334 66.0333 568.434 67.4V102H558.834Z" stroke="black" stroke-width="10" mask="url(#path-1-outside-1_503_6)"/>
</svg>
