<?xml version="1.0" encoding="UTF-8" standalone="no"?>
<svg
   xmlns:dc="http://purl.org/dc/elements/1.1/"
   xmlns:cc="http://creativecommons.org/ns#"
   xmlns:rdf="http://www.w3.org/1999/02/22-rdf-syntax-ns#"
   xmlns:svg="http://www.w3.org/2000/svg"
   xmlns="http://www.w3.org/2000/svg"
   xmlns:xlink="http://www.w3.org/1999/xlink"
   xmlns:sodipodi="http://sodipodi.sourceforge.net/DTD/sodipodi-0.dtd"
   xmlns:inkscape="http://www.inkscape.org/namespaces/inkscape"
   width="80"
   height="80"
   viewBox="0 0 80 80"
   version="1.1"
   id="SVGRoot"
   sodipodi:docname="colectivo-blue.svg"
   inkscape:version="1.0.2 (e86c870879, 2021-01-15)">
  <defs
     id="defs833">
    <linearGradient
       inkscape:collect="always"
       id="linearGradient1332">
      <stop
         style="stop-color:#000000;stop-opacity:1;"
         offset="0"
         id="stop1328" />
      <stop
         style="stop-color:#000000;stop-opacity:0;"
         offset="1"
         id="stop1330" />
    </linearGradient>
    <radialGradient
       inkscape:collect="always"
       xlink:href="#linearGradient1332"
       id="radialGradient1334"
       cx="40"
       cy="40"
       fx="40"
       fy="40"
       r="40"
       gradientUnits="userSpaceOnUse"
       gradientTransform="matrix(0.89999997,0,0,0.90000002,4.000001,6.0000001)" />
  </defs>
  <sodipodi:namedview
     id="base"
     pagecolor="#ffffff"
     bordercolor="#666666"
     borderopacity="1.0"
     inkscape:pageopacity="0.0"
     inkscape:pageshadow="2"
     inkscape:zoom="6.756644"
     inkscape:cx="23.730291"
     inkscape:cy="23.457618"
     inkscape:document-units="px"
     inkscape:current-layer="layer1"
     inkscape:document-rotation="0"
     showgrid="true"
     inkscape:window-width="1920"
     inkscape:window-height="1001"
     inkscape:window-x="-9"
     inkscape:window-y="-9"
     inkscape:window-maximized="1"
     showguides="true"
     inkscape:snap-bbox="true"
     inkscape:snap-grids="true"
     inkscape:bbox-paths="true"
     inkscape:bbox-nodes="true"
     inkscape:snap-bbox-edge-midpoints="true"
     inkscape:snap-bbox-midpoints="true">
    <inkscape:grid
       type="xygrid"
       id="grid1410"
       empspacing="8" />
  </sodipodi:namedview>
  <metadata
     id="metadata836">
    <rdf:RDF>
      <cc:Work
         rdf:about="">
        <dc:format>image/svg+xml</dc:format>
        <dc:type
           rdf:resource="http://purl.org/dc/dcmitype/StillImage" />
        <dc:title></dc:title>
      </cc:Work>
    </rdf:RDF>
  </metadata>
  <g
     inkscape:label="Capa 1"
     inkscape:groupmode="layer"
     id="layer1"
     style="display:inline">
    <circle
       style="display:inline;opacity:1;fill:url(#radialGradient1334);fill-opacity:1;stroke:none;stroke-width:2.25;stroke-linejoin:round;stroke-miterlimit:4;stroke-dasharray:none;stroke-opacity:1"
       id="path1412-01"
       cx="40"
       cy="42"
       r="36" />
    <circle
       style="fill:#ffffff;fill-opacity:1;stroke:none;stroke-width:2;stroke-linejoin:round;stroke-miterlimit:4;stroke-dasharray:none;stroke-opacity:1"
       id="path1412"
       cx="40"
       cy="40"
       r="32" />
    <circle
       style="display:inline;fill:#0000ff;fill-opacity:1;stroke:none;stroke-width:1.75;stroke-linejoin:round;stroke-miterlimit:4;stroke-dasharray:none;stroke-opacity:1"
       id="path1412-0"
       cx="40"
       cy="40"
       r="28" />
    <path
       d="m 40.000004,19.000004 c 11.025,0 18.375001,2.887499 18.375001,6.5625 v 3.937498 c 1.451954,0 2.624999,1.173049 2.624999,2.625002 v 5.250001 c 0,1.451954 -1.173045,2.624999 -2.624999,2.624999 v 13.125 c 0,1.451954 -1.173048,2.624999 -2.625002,2.624999 v 2.625002 c 0,1.451954 -1.173045,2.624999 -2.624999,2.624999 h -2.625 c -1.451952,0 -2.625,-1.173045 -2.625,-2.624999 v -2.625002 h -15.75 v 2.625002 c 0,1.451954 -1.173045,2.624999 -2.624998,2.624999 h -2.625002 c -1.451954,0 -2.624999,-1.173045 -2.624999,-2.624999 v -2.625002 c -1.449496,0 -2.625002,-1.173045 -2.625002,-2.624999 v -13.125 c -1.449491,0 -2.624999,-1.173045 -2.624999,-2.624999 v -5.250001 c 0,-1.451953 1.175508,-2.625002 2.624999,-2.625002 v -3.937498 c 0,-3.675001 7.350001,-6.5625 18.375001,-6.5625 z m -13.125,21 c 0,1.451954 1.173048,2.624999 2.625002,2.624999 h 9.187499 V 29.500002 h -9.187499 c -1.451954,0 -2.625002,1.173049 -2.625002,2.625002 z m 14.437499,2.624999 h 9.187501 c 1.451953,0 2.625,-1.173045 2.625,-2.624999 v -7.875 c 0,-1.451953 -1.173047,-2.625002 -2.625,-2.625002 h -9.187501 z m -13.125,9.187502 c 1.451954,0 2.625002,-1.173048 2.625002,-2.625002 0,-1.451954 -1.173048,-2.624999 -2.625002,-2.624999 -1.451953,0 -2.624999,1.173045 -2.624999,2.624999 0,1.451954 1.173046,2.625002 2.624999,2.625002 z m 23.625001,0 c 1.451953,0 2.625,-1.173048 2.625,-2.625002 0,-1.451954 -1.173047,-2.624999 -2.625,-2.624999 -1.451953,0 -2.625001,1.173045 -2.625001,2.624999 0,1.451954 1.173048,2.625002 2.625001,2.625002 z m -5.25,-27.5625 h -13.125 c -0.721877,0 -1.3125,0.587343 -1.3125,1.312499 0,0.725157 0.590623,1.3125 1.3125,1.3125 h 13.125 c 0.721877,0 1.3125,-0.587343 1.3125,-1.3125 0,-0.725156 -0.590623,-1.312499 -1.3125,-1.312499 z"
       id="path834"
       style="fill:#ffffff;stroke-width:0.0820312" />
  </g>
</svg>
