<?xml version="1.0" encoding="UTF-8" standalone="no"?>
<svg
   xmlns:osb="http://www.openswatchbook.org/uri/2009/osb"
   xmlns:dc="http://purl.org/dc/elements/1.1/"
   xmlns:cc="http://creativecommons.org/ns#"
   xmlns:rdf="http://www.w3.org/1999/02/22-rdf-syntax-ns#"
   xmlns:svg="http://www.w3.org/2000/svg"
   xmlns="http://www.w3.org/2000/svg"
   xmlns:xlink="http://www.w3.org/1999/xlink"
   xmlns:sodipodi="http://sodipodi.sourceforge.net/DTD/sodipodi-0.dtd"
   xmlns:inkscape="http://www.inkscape.org/namespaces/inkscape"
   width="80"
   height="80"
   viewBox="0 0 80 80"
   version="1.1"
   id="SVGRoot"
   sodipodi:docname="parada.svg"
   inkscape:version="1.0.2 (e86c870879, 2021-01-15)">
  <defs
     id="defs833">
    <linearGradient
       inkscape:collect="always"
       id="linearGradient3808">
      <stop
         style="stop-color:#000000;stop-opacity:1;"
         offset="0"
         id="stop3804" />
      <stop
         style="stop-color:#000000;stop-opacity:0;"
         offset="1"
         id="stop3806" />
    </linearGradient>
    <linearGradient
       id="linearGradient1510"
       osb:paint="gradient">
      <stop
         style="stop-color:#000000;stop-opacity:1;"
         offset="0"
         id="stop1506" />
      <stop
         style="stop-color:#000000;stop-opacity:0;"
         offset="1"
         id="stop1508" />
    </linearGradient>
    <radialGradient
       inkscape:collect="always"
       xlink:href="#linearGradient3808"
       id="radialGradient3810"
       cx="40"
       cy="40"
       fx="40"
       fy="40"
       r="40"
       gradientUnits="userSpaceOnUse"
       gradientTransform="matrix(0.89999994,-0.90000004,0.90000008,0.89999998,-31.999999,40.000003)" />
    <filter
       inkscape:collect="always"
       style="color-interpolation-filters:sRGB"
       id="filter4556"
       x="-0.054551849"
       width="1.1091037"
       y="-0.054551849"
       height="1.1091037">
      <feGaussianBlur
         inkscape:collect="always"
         stdDeviation="1.6365555"
         id="feGaussianBlur4558" />
    </filter>
  </defs>
  <sodipodi:namedview
     id="base"
     pagecolor="#ffffff"
     bordercolor="#666666"
     borderopacity="1.0"
     inkscape:pageopacity="0.0"
     inkscape:pageshadow="2"
     inkscape:zoom="11.313709"
     inkscape:cx="45.506847"
     inkscape:cy="55.467654"
     inkscape:document-units="px"
     inkscape:current-layer="layer1"
     inkscape:document-rotation="0"
     showgrid="true"
     inkscape:window-width="1920"
     inkscape:window-height="1001"
     inkscape:window-x="-9"
     inkscape:window-y="-9"
     inkscape:window-maximized="1"
     inkscape:snap-bbox="true"
     inkscape:bbox-paths="true"
     inkscape:bbox-nodes="true"
     inkscape:snap-bbox-edge-midpoints="false"
     inkscape:snap-bbox-midpoints="false"
     inkscape:object-paths="true"
     inkscape:snap-intersection-paths="true"
     inkscape:snap-smooth-nodes="true"
     inkscape:snap-midpoints="false"
     inkscape:snap-object-midpoints="false"
     inkscape:snap-center="false"
     inkscape:snap-text-baseline="true"
     inkscape:snap-page="false"
     inkscape:object-nodes="true"
     inkscape:snap-nodes="true"
     inkscape:snap-others="false"
     inkscape:snap-global="true"
     inkscape:snap-grids="true">
    <inkscape:grid
       type="xygrid"
       id="grid1403"
       empspacing="8" />
  </sodipodi:namedview>
  <metadata
     id="metadata836">
    <rdf:RDF>
      <cc:Work
         rdf:about="">
        <dc:format>image/svg+xml</dc:format>
        <dc:type
           rdf:resource="http://purl.org/dc/dcmitype/StillImage" />
        <dc:title />
      </cc:Work>
    </rdf:RDF>
  </metadata>
  <g
     inkscape:label="Capa 1"
     inkscape:groupmode="layer"
     id="layer1">
    <rect
       style="opacity:0.41741742;fill:url(#radialGradient3810);fill-opacity:1;fill-rule:nonzero;stroke:none;stroke-width:1.8;stroke-linejoin:round;filter:url(#filter4556)"
       id="rect1490"
       width="72"
       height="72"
       x="4"
       y="4" />
    <path
       style="fill:#ffffff;stroke:none;stroke-width:1px;stroke-linecap:butt;stroke-linejoin:miter;stroke-opacity:1"
       d="M 40,8 C 72,8 72,8 72,40 72,72 72,72 40,72 8,72 8,72 8,40 8,8 8,8 40,8 Z"
       id="path1412"
       sodipodi:nodetypes="ccccc" />
    <path
       style="fill:#b3b3b3;stroke:none;stroke-width:0.875px;stroke-linecap:butt;stroke-linejoin:miter;stroke-opacity:1"
       d="m 40,12 c 28,0 28,0 28,28 0,28 0,28 -28,28 C 12,68 12,68 12,40 12,12 12,12 40,12 Z"
       id="path1412-9"
       sodipodi:nodetypes="ccccc" />
    <path
       id="path1380-6-2"
       style="fill:#ffffff;fill-opacity:1;stroke:none;stroke-width:1.38889px;stroke-linecap:butt;stroke-linejoin:miter;stroke-opacity:1"
       d="M 20.38889,28 C 19,28 19,28 19,29.388889 v 6.944444 c 0,1.388889 0,1.388889 1.38889,1.388889 h 2.77778 V 51.61111 H 21.77778 C 20.38889,51.61111 19,51.61111 19,53 h 2.77778 4.16667 2.77778 c 0,-1.38889 -1.38889,-1.38889 -2.77778,-1.38889 H 24.55556 V 37.722222 h 2.77778 c 1.38889,0 1.38889,0 1.38889,-1.388889 V 29.388889 C 28.72223,28 28.72223,28 27.33334,28 Z" />
    <path
       style="fill:#ffffff;fill-opacity:1;stroke:none;stroke-width:1px;stroke-linecap:butt;stroke-linejoin:miter;stroke-opacity:1"
       d="m 31,34 h 30 c 0,0 0,-4 0,-3 0,0 0,-1 -1,-1 H 32 c -1,0 -1,0 -1,1 z"
       id="path1415-6"
       sodipodi:nodetypes="cccccsc" />
    <path
       style="fill:#ffffff;fill-opacity:1;stroke:none;stroke-width:1px;stroke-linecap:butt;stroke-linejoin:miter;stroke-opacity:1"
       d="m 33,34 v 10 h 2 V 34 Z"
       id="path1417-52"
       sodipodi:nodetypes="ccccc" />
    <path
       style="fill:#ffffff;fill-opacity:1;stroke:none;stroke-width:1px;stroke-linecap:butt;stroke-linejoin:miter;stroke-opacity:1"
       d="m 57,34 v 10 h 2 V 34 Z"
       id="path1417-5-9"
       sodipodi:nodetypes="ccccc" />
    <path
       style="fill:#ffffff;fill-opacity:1;stroke:none;stroke-width:1px;stroke-linecap:butt;stroke-linejoin:miter;stroke-opacity:1"
       d="m 32,44 h 28 c 1,0 1,0 1,1 v 8 H 31 v -8 c 0,-1 0,-1 1,-1 z"
       id="path1459-7"
       sodipodi:nodetypes="ccccccc" />
  </g>
</svg>
