<?xml version="1.0" encoding="UTF-8" standalone="no"?>
<svg
   xmlns:dc="http://purl.org/dc/elements/1.1/"
   xmlns:cc="http://creativecommons.org/ns#"
   xmlns:rdf="http://www.w3.org/1999/02/22-rdf-syntax-ns#"
   xmlns:svg="http://www.w3.org/2000/svg"
   xmlns="http://www.w3.org/2000/svg"
   xmlns:xlink="http://www.w3.org/1999/xlink"
   xmlns:sodipodi="http://sodipodi.sourceforge.net/DTD/sodipodi-0.dtd"
   xmlns:inkscape="http://www.inkscape.org/namespaces/inkscape"
   width="80"
   height="80"
   viewBox="0 0 80 80"
   version="1.1"
   id="SVGRoot"
   sodipodi:docname="user.svg"
   inkscape:version="1.0.2 (e86c870879, 2021-01-15)">
  <defs
     id="defs833">
    <linearGradient
       inkscape:collect="always"
       id="linearGradient1332">
      <stop
         style="stop-color:#000000;stop-opacity:1;"
         offset="0"
         id="stop1328" />
      <stop
         style="stop-color:#000000;stop-opacity:0;"
         offset="1"
         id="stop1330" />
    </linearGradient>
    <radialGradient
       inkscape:collect="always"
       xlink:href="#linearGradient1332"
       id="radialGradient1334"
       cx="40"
       cy="40"
       fx="40"
       fy="40"
       r="40"
       gradientUnits="userSpaceOnUse"
       gradientTransform="matrix(0.89999997,0,0,0.90000002,4.000001,6.0000001)" />
  </defs>
  <sodipodi:namedview
     id="base"
     pagecolor="#ffffff"
     bordercolor="#666666"
     borderopacity="1.0"
     inkscape:pageopacity="0.0"
     inkscape:pageshadow="2"
     inkscape:zoom="6.756644"
     inkscape:cx="14.99326"
     inkscape:cy="39.507883"
     inkscape:document-units="px"
     inkscape:current-layer="layer1"
     inkscape:document-rotation="0"
     showgrid="true"
     inkscape:window-width="1920"
     inkscape:window-height="1001"
     inkscape:window-x="-9"
     inkscape:window-y="-9"
     inkscape:window-maximized="1"
     showguides="true"
     inkscape:snap-bbox="true"
     inkscape:snap-grids="true"
     inkscape:bbox-paths="true"
     inkscape:bbox-nodes="true"
     inkscape:snap-bbox-edge-midpoints="true"
     inkscape:snap-bbox-midpoints="true">
    <inkscape:grid
       type="xygrid"
       id="grid1410"
       empspacing="8" />
  </sodipodi:namedview>
  <metadata
     id="metadata836">
    <rdf:RDF>
      <cc:Work
         rdf:about="">
        <dc:format>image/svg+xml</dc:format>
        <dc:type
           rdf:resource="http://purl.org/dc/dcmitype/StillImage" />
        <dc:title />
      </cc:Work>
    </rdf:RDF>
  </metadata>
  <g
     inkscape:label="Capa 1"
     inkscape:groupmode="layer"
     id="layer1"
     style="display:inline">
    <circle
       style="display:inline;opacity:1;fill:url(#radialGradient1334);fill-opacity:1;stroke:none;stroke-width:2.25;stroke-linejoin:round;stroke-miterlimit:4;stroke-dasharray:none;stroke-opacity:1"
       id="path1412-01"
       cx="40"
       cy="42"
       r="36" />
    <circle
       style="fill:#ffffff;fill-opacity:1;stroke:none;stroke-width:2;stroke-linejoin:round;stroke-miterlimit:4;stroke-dasharray:none;stroke-opacity:1"
       id="path1412"
       cx="40"
       cy="40"
       r="32" />
    <circle
       style="display:inline;fill:#666666;fill-opacity:1;stroke:none;stroke-width:1.75;stroke-linejoin:round;stroke-miterlimit:4;stroke-dasharray:none;stroke-opacity:1"
       id="path1412-0"
       cx="40"
       cy="40"
       r="28" />
    <path
       d="m 44.19954,23.416145 c 0,2.318703 -1.880502,4.198331 -4.198329,4.198331 -2.317828,0 -4.19833,-1.879628 -4.19833,-4.198331 0,-2.318702 1.880502,-4.198329 4.19833,-4.198329 2.317827,0 4.198329,1.879627 4.198329,4.198329 z M 39.301489,50.005567 V 61.201113 C 39.301489,62.749247 38.050738,64 36.502602,64 34.954469,64 33.703716,62.749247 33.703716,61.201113 V 41.687628 l -2.498881,4.163343 c -0.795932,1.320724 -2.515498,1.749304 -3.840596,0.95337 -1.325133,-0.795932 -1.753765,-2.510252 -0.957482,-3.839723 l 5.09721,-8.475378 c 1.517521,-2.527744 4.246435,-4.075878 7.194013,-4.075878 h 2.606463 c 2.947578,0 5.676491,1.548134 7.198386,4.075878 l 5.090475,8.475378 c 0.795932,1.329471 0.367354,3.043791 -0.953372,3.839723 -1.32947,0.795934 -3.043788,0.367354 -3.839721,-0.95337 L 46.298706,41.687628 V 61.201113 C 46.298706,62.749247 45.047953,64 43.499819,64 41.951685,64 40.700933,62.749247 40.700933,61.201113 V 50.005567 Z"
       id="path2"
       style="fill:#ffffff;stroke-width:0.0874653" />
  </g>
</svg>
